<?xml version="1.0" ?><svg id="Layer_1" style="enable-background:new 0 0 24.707 22.707;" version="1.1" viewBox="0 0 24.707 22.707" xml:space="preserve" xmlns="http://www.w3.org/2000/svg" xmlns:xlink="http://www.w3.org/1999/xlink"><g id="downtrend_1_"><rect height="7" style="opacity:0.5;" width="4" x="19.707" y="15.707"/><polygon points="1.707,22.707 5.707,22.707 5.707,8.535 1.707,4.535  " style="opacity:0.5;"/><polygon points="7.707,22.707 11.707,22.707 11.707,6.535 7.707,10.535  " style="opacity:0.5;"/><polygon points="17.707,14.293 17.707,10.535 13.707,6.535 13.707,22.707 17.707,22.707 17.707,15.707    16.293,15.707  " style="opacity:0.5;"/><polygon points="22.414,11 22.121,10.707 17.707,6.293 17.121,5.707 12.707,1.293 8.293,5.707 7.707,6.293 5.707,4.293    5.121,3.707 1.414,0 0,1.414 2.293,3.707 5.707,7.121 7.707,9.121 11.121,5.707 12.707,4.121 14.293,5.707 17.707,9.121    19.707,11.121 21,12.414 19.707,13.707 18.707,14.707 19.707,14.707 23.707,14.707 24.707,14.707 24.707,8.707 22.707,10.707  "/></g></svg>