<?xml version="1.0" ?><!DOCTYPE svg  PUBLIC '-//W3C//DTD SVG 1.1//EN'  'http://www.w3.org/Graphics/SVG/1.1/DTD/svg11.dtd'><svg enable-background="new 0 0 334.011 358.814" height="358.814px" id="Layer_1" version="1.1" viewBox="0 0 334.011 358.814" width="334.011px" xml:space="preserve" xmlns="http://www.w3.org/2000/svg" xmlns:xlink="http://www.w3.org/1999/xlink"><g><path d="M207.472,88.471c24.445,0,44.227-19.703,44.227-44.244C251.698,19.68,231.917,0,207.472,0   c-24.461,0-44.258,19.68-44.258,44.227C163.214,68.768,183.011,88.471,207.472,88.471z"/><path d="M193.005,247.4l-34.592-29.131l-24.988,36.482l23.711,19.967v62.758c0.359,11.92,11.229,21.338,23.072,21.338   c0.223,0,0.449-0.004,0.674-0.01c12.145-0.365,20.6-10.508,20.234-22.652v-72.586C200.915,256.877,196.503,250.35,193.005,247.4z"/><path d="M268.229,153.939h-45.262l-21.361-31.361c-13.465-22.41-30.039-34.154-58.525-34.154H85.472   c0.006,0.016,0.006,0.031,0.012,0.047c-5.568,0.004-11.063,2.535-14.584,7.387l-31.766,43.805   c-5.836,8.047-4.043,19.303,4.006,25.139c3.191,2.314,6.889,3.43,10.551,3.43c5.572,0,11.066-2.58,14.588-7.436l26.375-36.371   h23.936l-40.43,62.027c-5.77,9.795-7.148,16.719-7.148,29.963c0,13.633,0,55.197,0,55.197L16.62,285.344   C4.839,288.316-2.3,300.279,0.675,312.059c2.518,9.975,11.477,16.621,21.314,16.621c1.781,0,3.594-0.219,5.4-0.676l70.461-17.789   c-0.002-0.004-0.004-0.008-0.004-0.008c9.566-2.365,17.023-10.826,17.16-21.027v-32.264l67.412-98.559l16.152,23.715   c3.484,5.115,9.139,7.869,14.893,7.869c0.01,0,0.018-0.002,0.027-0.002h54.738c9.941,0,18-8.059,18-18   S278.171,153.939,268.229,153.939z"/><path d="M287.183,214.9c-25.809,0-46.805,20.996-46.805,46.805c0,25.818,20.996,46.824,46.805,46.824   c25.82,0,46.828-21.006,46.828-46.824C334.011,235.896,313.003,214.9,287.183,214.9z M287.183,294.529   c-18.088,0-32.805-14.725-32.805-32.824c0-18.088,14.717-32.805,32.805-32.805c18.102,0,32.828,14.717,32.828,32.805   C320.011,279.805,305.284,294.529,287.183,294.529z"/></g></svg>