<?xml version="1.0" ?><svg height="64px" version="1.1" viewBox="0 0 64 64" width="64px" xmlns="http://www.w3.org/2000/svg" xmlns:xlink="http://www.w3.org/1999/xlink"><title/><desc/><defs/><g fill="none" fill-rule="evenodd" id="Apple-Watch-Icons" stroke="none" stroke-width="1"><g fill="#000000" id="basketball_player"><path d="M47.5,5 C46.119,5 45,6.119 45,7.5 L45,15 L29,15 C27.506,15 26.379,15.437 25.417,15.979 C24.083,16.771 22.922,18.215 22.104,20.001 L18.896,27 L12.5,27 C11.119,27 10,28.119 10,29.5 C10,30.881 11.119,32 12.5,32 L20.5,32 C21.477,32 22.365,31.43 22.773,30.542 L25,25.681 L25,57.5 C25,58.881 26.119,60 27.5,60 C28.881,60 30,58.881 30,57.5 L30,39 C30,37.896 30.896,37 32.001,37 C33.106,37 34.001,37.896 34.001,39 L34.001,57.495 C34.001,57.497 34,57.499 34,57.5 C34,58.881 35.119,60 36.5,60 C37.881,60 39,58.881 39,57.5 L39,22 C39,20.897 39.898,20 41,20 L45,20 C47.898,20 50,17.897 50,15 L50,7.5 C50,6.119 48.881,5 47.5,5" id="Fill-116"/><path d="M37,9 C37,6.239 34.762,4 32,4 C29.238,4 27,6.239 27,9 C27,11.761 29.238,14 32,14 C34.762,14 37,11.761 37,9" id="Fill-117"/><path d="M13,34 C10.243,34 8,36.243 8,39 C8,41.757 10.243,44 13,44 C15.757,44 18,41.757 18,39 C18,36.243 15.757,34 13,34" id="Fill-118"/></g></g></svg>