<?xml version="1.0" ?><svg enable-background="new 0 0 66 66" id="Layer_1" version="1.1" viewBox="0 0 66 66" xml:space="preserve" xmlns="http://www.w3.org/2000/svg" xmlns:xlink="http://www.w3.org/1999/xlink"><g id="XMLID_249_"><g id="XMLID_231_"><path d="M54.742,32.867v27.388c0,1.24,1.01,2.25,2.25,2.25h5.25c1.25,0,2.26-1.01,2.26-2.25V32.867    c0-1.25-1.01-2.25-2.26-2.25h-5.25C55.752,30.617,54.742,31.617,54.742,32.867z" id="XMLID_2106_"/><g id="XMLID_236_"><path d="M52.743,34.29v24.37l-11.05,5c-4.296,1.925-7.788-0.047-8.14-0.08     c-17.177-6.106-3.181-1.011-29.06-11.81c-2.52-1.074-3.677-3.996-2.58-6.48c1.06-2.5,3.97-3.66,6.47-2.59l18.75,8.05h8.22l4.63-5     l-14.61-1.14c-1.32,0-2.54-0.55-3.42-1.45c-0.89-0.89-1.44-2.12-1.44-3.48c0-2.73,2.22-4.94,4.94-4.94h10.91     c0.14-0.05,0.48-0.2,0.78-0.33c1.57-0.67,4.49-1.92,7.67-1.92c0.02,0,0.01-0.02,0.07,0C48.033,32.51,50.833,33.44,52.743,34.29z" id="XMLID_255_"/></g></g><g id="XMLID_238_"><path d="M12.881,15.798c0.063-1.333,0.256-2.648,0.562-3.933c-2.883-0.804-5.524-2.379-7.589-4.609    c-1.898,2.373-3.093,5.321-3.302,8.542H12.881z" id="XMLID_256_"/><path d="M12.88,17.802l-10.328,0c0.209,3.223,1.405,6.173,3.302,8.546c2.067-2.226,4.708-3.799,7.59-4.601    C13.136,20.458,12.943,19.139,12.88,17.802z" id="XMLID_258_"/><path d="M28.373,27.789c-2.987-3.272-7.526-5.157-12.385-4.531c1.955,5.51,5.317,7.65,5.481,8.387    c2.655-0.654,5.037-1.991,6.944-3.828C28.401,27.806,28.384,27.802,28.373,27.789z" id="XMLID_259_"/><path d="M14.907,17.802c0.062,1.195,0.229,2.374,0.507,3.525c5.609-0.836,10.864,1.273,14.342,5.02    c1.898-2.373,3.093-5.322,3.303-8.545L14.907,17.802z" id="XMLID_260_"/><path d="M7.238,5.815c1.826,2.006,4.184,3.416,6.757,4.13c1.065-3.139,2.853-6.016,5.248-8.375    c-0.475-0.044-0.955-0.073-1.442-0.073c-4.12,0-7.853,1.638-10.604,4.287C7.209,5.798,7.226,5.802,7.238,5.815z" id="XMLID_261_"/><path d="M13.997,23.665c-2.572,0.713-4.931,2.121-6.76,4.124c-0.011,0.013-0.028,0.017-0.039,0.029    c2.751,2.65,6.483,4.287,10.603,4.287c0.488,0,0.97-0.028,1.446-0.073C16.852,29.676,15.064,26.801,13.997,23.665z" id="XMLID_262_"/><path d="M33.059,15.798c-0.209-3.221-1.404-6.169-3.303-8.542c-3.449,3.726-8.69,5.873-14.345,5.029    c-0.277,1.148-0.442,2.322-0.504,3.513H33.059z" id="XMLID_263_"/><path d="M28.373,5.815c0.012-0.013,0.028-0.017,0.04-0.03c-1.907-1.836-4.289-3.174-6.945-3.828    c-0.172,0.757-3.512,2.826-5.483,8.395C20.846,10.98,25.388,9.094,28.373,5.815z" id="XMLID_264_"/></g></g></svg>