<?xml version="1.0" ?><svg id="Layer_1" style="enable-background:new 0 0 24.707 22;" version="1.1" viewBox="0 0 24.707 22" xml:space="preserve" xmlns="http://www.w3.org/2000/svg" xmlns:xlink="http://www.w3.org/1999/xlink"><g id="uptrend_1_"><polygon points="1.707,22 5.707,22 5.707,12 5.535,12 1.707,15.828  " style="opacity:0.5;"/><polygon points="7.707,22 11.707,22 11.707,13.828 7.707,9.828  " style="opacity:0.5;"/><polygon points="13.707,22 17.707,22 17.707,10 17.535,10 13.707,13.828  " style="opacity:0.5;"/><polygon points="19.707,7.828 19.707,22 23.707,22 23.707,6.414 22.414,5.121  " style="opacity:0.5;"/><polygon points="21,2.293 12.707,10.586 11.707,9.586 11.121,9 7.707,5.586 0,13.293 1.414,14.707 1.707,14.414 4.121,12    7.707,8.414 8.293,9 11.707,12.414 12.707,13.414 13.707,12.414 16.121,10 19.707,6.414 22.121,4 22.414,3.707 22.707,4 23.707,5    24.707,6 24.707,0 18.707,0  "/></g></svg>