<?xml version="1.0" ?><!DOCTYPE svg  PUBLIC '-//W3C//DTD SVG 1.1//EN'  'http://www.w3.org/Graphics/SVG/1.1/DTD/svg11.dtd'><svg height="512px" style="enable-background:new 0 0 512 512;" version="1.1" viewBox="0 0 512 512" width="512px" xml:space="preserve" xmlns="http://www.w3.org/2000/svg" xmlns:xlink="http://www.w3.org/1999/xlink"><g id="referee_whistle"><g><path d="M217.236,435.702l-38.193-68.578l200.536-200.667c79.968-66.287,145.404,5.828,130.217,83.023    c-21.239,107.951-94.256,119.595-94.256,119.595c-66.561,8.609-82.738-50.356-82.738-50.356L217.236,435.702z"/><polygon points="197.987,437.862 163.363,375.313 0,318.396 35.012,383.604   "/><path d="M348.729,356.853c-16.589-14.299-18.051-25.154-18.051-25.154l-15.43,14.008L348.729,356.853z"/><path d="M394.38,116.093c2.015-3.609,7.418-20.207-11.23-34.51c-8.738-6.703-46.625-16.154-65.339,9.018l-28.36-9.441    c0,0-48.186-24.098-96.186,24.492L0,301.287l166.161,56.145l200.334-201.977c0,0,27.232-28.051,61.236-28.258L394.38,116.093z     M371.929,108.619l-29.842-9.936C351.228,86.89,377.062,92.986,371.929,108.619z M268.642,221.568l-117.57-39.758l41.626-41.412    l117.57,39.758L268.642,221.568z"/></g></g></svg>